<svg width="31" height="31" viewBox="0 0 31 31" fill="none" xmlns="http://www.w3.org/2000/svg">
<path d="M7.74991 11.6249C8.05171 11.6243 8.34419 11.7295 8.57657 11.922L15.4999 17.7087L22.4362 12.1287C22.5683 12.0214 22.7203 11.9413 22.8835 11.8929C23.0467 11.8446 23.2178 11.8289 23.3871 11.8469C23.5563 11.865 23.7203 11.9162 23.8697 11.9978C24.0191 12.0794 24.1508 12.1897 24.2574 12.3224C24.3647 12.4546 24.4448 12.6066 24.4932 12.7698C24.5415 12.933 24.5571 13.1041 24.5391 13.2733C24.5211 13.4426 24.4699 13.6066 24.3883 13.756C24.3067 13.9053 24.1963 14.0371 24.0637 14.1437L16.3137 20.3824C16.0825 20.5724 15.7926 20.6763 15.4934 20.6763C15.1943 20.6763 14.9044 20.5724 14.6732 20.3824L6.92324 13.9241C6.79245 13.8157 6.68433 13.6825 6.60509 13.5322C6.52584 13.3819 6.47702 13.2175 6.46142 13.0483C6.44582 12.8791 6.46376 12.7085 6.51419 12.5463C6.56462 12.3841 6.64656 12.2334 6.75532 12.1028C6.87552 11.9547 7.02705 11.835 7.19901 11.7523C7.37098 11.6697 7.55912 11.6262 7.74991 11.6249Z" fill="#F7931E"/>
</svg>
