<svg width="36" height="23" viewBox="0 0 36 23" fill="none" xmlns="http://www.w3.org/2000/svg">
<path fill-rule="evenodd" clip-rule="evenodd" d="M0.499966 11.5C0.499966 11.8315 0.63166 12.1495 0.866081 12.3839C1.1005 12.6183 1.41845 12.75 1.74997 12.75L31.2325 12.75L23.365 20.615C23.2487 20.7312 23.1566 20.8692 23.0937 21.021C23.0308 21.1729 22.9984 21.3356 22.9984 21.5C22.9984 21.6644 23.0308 21.8271 23.0937 21.979C23.1566 22.1308 23.2487 22.2688 23.365 22.385C23.4812 22.5012 23.6192 22.5934 23.771 22.6563C23.9229 22.7192 24.0856 22.7516 24.25 22.7516C24.4143 22.7516 24.5771 22.7192 24.7289 22.6563C24.8808 22.5934 25.0187 22.5012 25.135 22.385L35.135 12.385C35.2514 12.2689 35.3437 12.131 35.4067 11.9791C35.4698 11.8272 35.5022 11.6644 35.5022 11.5C35.5022 11.3356 35.4698 11.1728 35.4067 11.0209C35.3437 10.8691 35.2514 10.7311 35.135 10.615L25.135 0.615004C25.0187 0.498785 24.8808 0.406593 24.7289 0.343697C24.5771 0.280798 24.4143 0.248426 24.25 0.248426C24.0856 0.248426 23.9229 0.280798 23.771 0.343697C23.6192 0.406593 23.4812 0.498785 23.365 0.615004C23.2487 0.731224 23.1566 0.869196 23.0937 1.02105C23.0308 1.17289 22.9984 1.33565 22.9984 1.5C22.9984 1.66436 23.0308 1.82712 23.0937 1.97896C23.1566 2.13081 23.2487 2.26879 23.365 2.385L31.2325 10.25L1.74997 10.25C1.41845 10.25 1.1005 10.3817 0.866081 10.6161C0.63166 10.8505 0.499966 11.1685 0.499966 11.5Z" fill="white"/>
</svg>