<svg width="36" height="24" viewBox="0 0 36 24" fill="none" xmlns="http://www.w3.org/2000/svg">
<path fill-rule="evenodd" clip-rule="evenodd" d="M35.5 12.0384C35.5 11.7069 35.3683 11.389 35.1339 11.1546C34.8995 10.9201 34.5816 10.7884 34.25 10.7884H4.76754L12.635 2.92344C12.7513 2.80722 12.8434 2.66925 12.9063 2.5174C12.9692 2.36555 13.0016 2.2028 13.0016 2.03844C13.0016 1.87408 12.9692 1.71133 12.9063 1.55949C12.8434 1.40764 12.7513 1.26966 12.635 1.15344C12.5188 1.03722 12.3808 0.945034 12.229 0.882136C12.0771 0.819238 11.9144 0.786865 11.75 0.786865C11.5857 0.786865 11.4229 0.819238 11.2711 0.882136C11.1192 0.945034 10.9813 1.03722 10.865 1.15344L0.865037 11.1534C0.748629 11.2696 0.656272 11.4075 0.593256 11.5594C0.53024 11.7112 0.497803 11.874 0.497803 12.0384C0.497803 12.2029 0.53024 12.3657 0.593256 12.5175C0.656272 12.6694 0.748629 12.8073 0.865037 12.9234L10.865 22.9234C10.9813 23.0397 11.1192 23.1319 11.2711 23.1948C11.4229 23.2577 11.5857 23.29 11.75 23.29C11.9144 23.29 12.0771 23.2577 12.229 23.1948C12.3808 23.1319 12.5188 23.0397 12.635 22.9234C12.7513 22.8072 12.8434 22.6693 12.9063 22.5174C12.9692 22.3656 13.0016 22.2028 13.0016 22.0384C13.0016 21.8741 12.9692 21.7113 12.9063 21.5595C12.8434 21.4076 12.7513 21.2697 12.635 21.1534L4.76754 13.2884H34.25C34.5816 13.2884 34.8995 13.1567 35.1339 12.9223C35.3683 12.6879 35.5 12.37 35.5 12.0384Z" fill="white"/>
</svg>
