<svg width="30" height="30" viewBox="0 0 30 30" fill="none" xmlns="http://www.w3.org/2000/svg">
<path d="M29.3199 7.22988C29.0061 8.23263 28.5471 9.18398 27.9574 10.0536L27.9812 10.0161C27.4212 10.9495 26.7524 12.0278 25.9749 13.2511C25.3082 14.217 24.9553 14.717 24.9162 14.7511C24.738 14.9742 24.6227 15.241 24.5824 15.5236L24.5812 15.5324C24.613 15.7871 24.7312 16.0231 24.9162 16.2011L25.4162 16.7586C28.0912 19.5078 29.5957 21.4028 29.9299 22.4436C29.9933 22.6146 30.0137 22.7985 29.9892 22.9792C29.9648 23.1599 29.8964 23.3319 29.7899 23.4799L29.7924 23.4761C29.6666 23.6059 29.5132 23.7058 29.3435 23.7683C29.1739 23.8309 28.9924 23.8545 28.8124 23.8374H28.8174H25.5224C25.1012 23.8374 24.7137 23.6899 24.4099 23.4449L24.4137 23.4474C23.98 23.0918 23.5819 22.6949 23.2249 22.2624L23.2137 22.2474C22.6378 21.5965 22.127 21.0486 21.6812 20.6036C20.1962 19.192 19.1003 18.4861 18.3937 18.4861C18.1656 18.4657 17.9375 18.5254 17.7487 18.6549L17.7524 18.6524C17.6713 18.7541 17.6117 18.8713 17.5773 18.9968C17.5429 19.1223 17.5345 19.2535 17.5524 19.3824V19.3774C17.5038 19.9606 17.488 20.5461 17.5049 21.1311V21.1099V22.5586C17.5404 22.7317 17.5282 22.9111 17.4697 23.0778C17.4111 23.2444 17.3084 23.3921 17.1724 23.5049L17.1712 23.5061C16.5382 23.7921 15.8413 23.9072 15.1499 23.8399L15.1662 23.8411C13.2739 23.8087 11.4263 23.2607 9.82241 22.2561L9.86616 22.2811C8.01665 21.1661 6.43137 19.6627 5.21991 17.8749L5.18616 17.8224C4.01021 16.2542 2.97653 14.5843 2.09741 12.8324L2.00991 12.6399C1.42411 11.5054 0.909371 10.3357 0.468662 9.13738L0.393662 8.90613C0.189331 8.28405 0.0592619 7.64 0.00616211 6.98738L0.00366211 6.95613C0.00366211 6.32447 0.375329 6.00863 1.11866 6.00863H4.40616C4.73852 5.9826 5.06845 6.08305 5.32991 6.28988L5.32741 6.28738C5.57741 6.56113 5.76241 6.89738 5.85366 7.27238L5.85741 7.28738C6.40053 8.84278 7.06378 10.3536 7.84116 11.8061L7.75741 11.6349C8.31927 12.7762 8.99924 13.8554 9.78616 14.8549L9.75741 14.8161C10.4241 15.6345 10.9441 16.0436 11.3174 16.0436L11.3574 16.0449C11.4453 16.045 11.5317 16.022 11.6078 15.9781C11.684 15.9342 11.7472 15.871 11.7912 15.7949L11.7924 15.7924C11.9121 15.4791 11.9595 15.1428 11.9312 14.8086V14.8161V9.96738C11.9078 9.41763 11.7716 8.87855 11.5312 8.38363L11.5412 8.40738C11.3953 8.09284 11.206 7.80039 10.9787 7.53863L10.9824 7.54363C10.7728 7.33437 10.6364 7.06296 10.5937 6.76988L10.5924 6.76238C10.5924 6.54988 10.6899 6.35863 10.8424 6.23363L10.8437 6.23238C11.0006 6.08866 11.2059 6.00923 11.4187 6.00988H16.6112C16.7415 5.99467 16.8736 6.01206 16.9955 6.0605C17.1175 6.10893 17.2255 6.18689 17.3099 6.28738L17.3112 6.28863C17.469 6.58035 17.5381 6.91188 17.5099 7.24238V7.23613V13.7024C17.49 13.9574 17.5494 14.2124 17.6799 14.4324L17.6774 14.4274C17.7232 14.4958 17.7851 14.5519 17.8577 14.5907C17.9303 14.6295 18.0113 14.6498 18.0937 14.6499H18.0949C18.3057 14.6362 18.509 14.5663 18.6837 14.4474L18.6799 14.4499C19.0199 14.2161 19.3124 13.9499 19.5662 13.6486L19.5712 13.6424C20.3434 12.7686 21.0358 11.8273 21.6399 10.8299L21.6887 10.7424C22.1187 10.0299 22.5837 9.15238 23.0049 8.25113L23.0824 8.06738L23.6399 6.95238C23.7381 6.66409 23.9274 6.41558 24.1793 6.24442C24.4312 6.07325 24.732 5.98874 25.0362 6.00363H25.0324H28.3212C29.2095 6.00363 29.5428 6.41238 29.3212 7.22988H29.3199Z" fill="#F7931E"/>
</svg>
