<svg width="30" height="30" viewBox="0 0 30 30" fill="none" xmlns="http://www.w3.org/2000/svg">
<path d="M29.3202 7.22988C29.0063 8.23263 28.5473 9.18398 27.9577 10.0536L27.9814 10.0161C27.4214 10.9495 26.7527 12.0278 25.9752 13.2511C25.3085 14.217 24.9556 14.717 24.9164 14.7511C24.7382 14.9742 24.623 15.241 24.5827 15.5236L24.5814 15.5324C24.6132 15.7871 24.7315 16.0231 24.9164 16.2011L25.4164 16.7586C28.0914 19.5078 29.596 21.4028 29.9302 22.4436C29.9935 22.6146 30.0139 22.7985 29.9895 22.9792C29.9651 23.1599 29.8966 23.3319 29.7902 23.4799L29.7927 23.4761C29.6668 23.6059 29.5134 23.7058 29.3438 23.7683C29.1742 23.8309 28.9926 23.8545 28.8127 23.8374H28.8177H25.5227C25.1014 23.8374 24.7139 23.6899 24.4102 23.4449L24.4139 23.4474C23.9802 23.0918 23.5821 22.6949 23.2252 22.2624L23.2139 22.2474C22.6381 21.5965 22.1272 21.0486 21.6814 20.6036C20.1964 19.192 19.1006 18.4861 18.3939 18.4861C18.1658 18.4657 17.9378 18.5254 17.7489 18.6549L17.7527 18.6524C17.6715 18.7541 17.612 18.8713 17.5776 18.9968C17.5432 19.1223 17.5347 19.2535 17.5527 19.3824V19.3774C17.5041 19.9606 17.4882 20.5461 17.5052 21.1311V21.1099V22.5586C17.5407 22.7317 17.5285 22.9111 17.4699 23.0778C17.4113 23.2444 17.3086 23.3921 17.1727 23.5049L17.1714 23.5061C16.5384 23.7921 15.8415 23.9072 15.1502 23.8399L15.1664 23.8411C13.2741 23.8087 11.4266 23.2607 9.82266 22.2561L9.86641 22.2811C8.0169 21.1661 6.43161 19.6627 5.22016 17.8749L5.18641 17.8224C4.01045 16.2542 2.97677 14.5843 2.09766 12.8324L2.01016 12.6399C1.42436 11.5054 0.909615 10.3357 0.468906 9.13738L0.393906 8.90613C0.189575 8.28405 0.0595061 7.64 0.00640625 6.98738L0.00390625 6.95613C0.00390625 6.32447 0.375573 6.00863 1.11891 6.00863H4.40641C4.73877 5.9826 5.0687 6.08305 5.33016 6.28988L5.32766 6.28738C5.57766 6.56113 5.76266 6.89738 5.85391 7.27238L5.85766 7.28738C6.40077 8.84278 7.06402 10.3536 7.84141 11.8061L7.75766 11.6349C8.31952 12.7762 8.99948 13.8554 9.78641 14.8549L9.75766 14.8161C10.4243 15.6345 10.9443 16.0436 11.3177 16.0436L11.3577 16.0449C11.4455 16.045 11.5319 16.022 11.6081 15.9781C11.6842 15.9342 11.7475 15.871 11.7914 15.7949L11.7927 15.7924C11.9123 15.4791 11.9598 15.1428 11.9314 14.8086V14.8161V9.96738C11.908 9.41763 11.7719 8.87855 11.5314 8.38363L11.5414 8.40738C11.3956 8.09284 11.2062 7.80039 10.9789 7.53863L10.9827 7.54363C10.773 7.33437 10.6367 7.06296 10.5939 6.76988L10.5927 6.76238C10.5927 6.54988 10.6902 6.35863 10.8427 6.23363L10.8439 6.23238C11.0008 6.08866 11.2061 6.00923 11.4189 6.00988H16.6114C16.7417 5.99467 16.8738 6.01206 16.9958 6.0605C17.1177 6.10893 17.2258 6.18689 17.3102 6.28738L17.3114 6.28863C17.4693 6.58035 17.5384 6.91188 17.5102 7.24238V7.23613V13.7024C17.4902 13.9574 17.5496 14.2124 17.6802 14.4324L17.6777 14.4274C17.7234 14.4958 17.7854 14.5519 17.858 14.5907C17.9306 14.6295 18.0116 14.6498 18.0939 14.6499H18.0952C18.306 14.6362 18.5093 14.5663 18.6839 14.4474L18.6802 14.4499C19.0202 14.2161 19.3127 13.9499 19.5664 13.6486L19.5714 13.6424C20.3437 12.7686 21.036 11.8273 21.6402 10.8299L21.6889 10.7424C22.1189 10.0299 22.5839 9.15238 23.0052 8.25113L23.0827 8.06738L23.6402 6.95238C23.7383 6.66409 23.9277 6.41558 24.1796 6.24442C24.4315 6.07325 24.7322 5.98874 25.0364 6.00363H25.0327H28.3214C29.2097 6.00363 29.5431 6.41238 29.3214 7.22988H29.3202Z" fill="white" fill-opacity="0.7"/>
</svg>
